<?xml version="1.0" standalone="no"?>
<!DOCTYPE svg PUBLIC "-//W3C//DTD SVG 20010904//EN"
 "http://www.w3.org/TR/2001/REC-SVG-20010904/DTD/svg10.dtd">
<svg version="1.0" xmlns="http://www.w3.org/2000/svg"
 width="900.000000pt" height="900.000000pt" viewBox="0 0 900.000000 900.000000"
 preserveAspectRatio="xMidYMid meet">
<metadata>
Created by potrace 1.11, written by Peter Selinger 2001-2013
</metadata>
<g transform="translate(0.000000,900.000000) scale(0.100000,-0.100000)"
fill="#000000" stroke="none">
<path d="M3158 8800 c-21 -13 -24 -63 -5 -77 6 -6 41 -13 77 -16 36 -3 93 -16
127 -27 60 -21 61 -22 56 -53 -4 -25 1 -37 21 -56 14 -14 26 -33 26 -44 0 -12
22 -40 52 -67 l53 -47 -32 -17 c-35 -18 -53 -43 -53 -75 0 -12 -2 -21 -5 -21
-3 0 -51 47 -106 105 -101 104 -135 125 -156 93 -13 -22 -32 -101 -33 -139 0
-21 -7 -42 -16 -50 -11 -9 -14 -22 -10 -42 5 -23 1 -35 -19 -53 -14 -13 -25
-32 -25 -42 0 -27 35 -56 60 -49 25 6 27 -2 35 -148 6 -106 20 -246 30 -292 4
-17 -2 -26 -24 -38 -17 -8 -32 -15 -34 -15 -3 0 -17 35 -33 78 -15 42 -49 131
-76 197 -47 113 -49 122 -37 158 11 32 10 40 -4 54 -9 9 -25 17 -36 18 -11 1
-31 13 -45 28 -14 15 -30 27 -36 27 -21 0 -60 -49 -60 -75 0 -14 30 -85 66
-157 75 -150 129 -285 150 -373 8 -33 17 -68 20 -77 3 -10 2 -18 -3 -18 -5 0
-80 144 -167 320 -150 302 -158 321 -143 338 40 44 7 98 -54 88 -22 -4 -40 -2
-44 5 -11 16 -57 31 -80 25 -27 -7 -45 -45 -45 -96 0 -21 -4 -42 -10 -45 -5
-3 -10 -20 -10 -37 0 -33 -47 -148 -61 -148 -4 0 -11 5 -14 10 -3 6 -22 10
-42 10 -27 0 -36 -5 -40 -20 -3 -12 -21 -27 -39 -35 -29 -12 -34 -19 -34 -47
1 -18 7 -44 15 -58 8 -14 14 -30 15 -35 0 -12 -96 -128 -110 -133 -5 -2 -23 7
-39 19 -26 19 -34 21 -56 11 -37 -17 -34 -63 7 -95 l31 -25 -30 -39 c-16 -21
-62 -86 -101 -144 -72 -107 -87 -150 -60 -177 31 -31 98 0 98 46 0 11 5 24 10
27 6 4 10 -15 10 -50 0 -47 4 -60 26 -81 48 -49 109 -7 231 163 36 51 73 93
80 93 7 0 13 -1 13 -3 0 -2 -9 -53 -20 -113 -11 -60 -20 -121 -20 -135 0 -31
-25 -39 -119 -39 -31 0 -112 -7 -181 -15 -137 -16 -220 -19 -221 -7 -4 46 -18
62 -54 62 -46 0 -57 -44 -29 -121 36 -104 59 -272 70 -534 8 -199 -19 -583
-87 -1219 l-31 -290 26 -21 c24 -19 26 -27 26 -97 l0 -76 -30 11 c-37 14 -76
1 -101 -33 -11 -15 -26 -73 -39 -150 -11 -69 -33 -183 -47 -255 -26 -123 -27
-144 -26 -405 2 -607 37 -860 135 -966 48 -52 91 -68 183 -68 86 1 167 19 221
50 46 26 104 87 104 109 0 23 17 18 23 -7 17 -68 48 -348 57 -518 6 -107 13
-202 15 -210 2 -8 9 -96 15 -195 23 -386 43 -445 226 -693 105 -140 414 -466
569 -598 110 -94 147 -118 400 -252 22 -12 67 -32 100 -46 33 -13 83 -33 110
-44 28 -12 75 -24 105 -27 30 -4 74 -13 97 -21 32 -12 47 -13 63 -4 17 9 41 6
118 -14 202 -53 367 -77 557 -83 350 -10 572 28 697 120 18 13 41 22 50 20 26
-6 141 83 341 266 44 40 122 106 173 147 51 40 126 104 166 141 41 38 102 91
136 118 102 82 227 251 310 420 25 49 64 119 87 155 108 169 214 396 250 540
14 54 40 138 59 187 18 48 49 152 67 229 31 133 35 142 61 152 39 14 78 104
112 252 50 222 66 386 66 664 0 95 7 226 15 291 18 143 19 289 4 351 -12 48
-56 94 -90 94 -53 0 -100 -44 -155 -145 -21 -38 -46 -76 -56 -83 -40 -29 -4
-97 45 -84 34 8 46 21 79 86 38 77 67 118 78 111 21 -13 21 -143 1 -287 -16
-110 -21 -200 -21 -350 0 -245 -12 -393 -46 -555 -35 -174 -40 -183 -48 -93
-18 205 -27 502 -21 658 6 150 5 175 -9 197 -17 26 -40 31 -66 15 -12 -7 -16
-41 -21 -157 -6 -134 4 -560 15 -675 4 -42 3 -47 -20 -52 -14 -4 -30 -17 -36
-31 -9 -21 -6 -31 23 -76 24 -39 32 -61 31 -90 -4 -55 -55 -259 -95 -374 -19
-55 -51 -154 -70 -220 -40 -134 -134 -341 -204 -449 -26 -39 -72 -121 -104
-182 -81 -159 -185 -308 -266 -384 -111 -103 -271 -243 -356 -310 -43 -33
-111 -91 -150 -128 -80 -74 -172 -152 -181 -152 -3 0 -6 11 -6 25 0 17 -8 29
-25 37 -32 14 -48 1 -85 -72 -16 -32 -40 -71 -55 -88 -55 -66 -180 -114 -340
-132 -138 -15 -425 -12 -535 5 -155 25 -421 85 -454 102 -17 9 -66 42 -108 75
-42 32 -85 58 -95 58 -47 0 -60 -68 -18 -96 44 -29 27 -34 -27 -9 -29 14 -59
25 -66 25 -6 0 -29 9 -49 20 -21 11 -45 20 -53 20 -8 0 -31 11 -50 23 -19 13
-84 50 -145 82 -141 75 -286 197 -504 425 -168 175 -229 246 -338 398 -100
139 -127 231 -143 495 -5 89 -14 214 -20 277 -5 63 -15 196 -20 295 -8 134
-23 248 -58 445 -37 212 -47 288 -47 380 0 63 -4 121 -8 128 -5 6 -19 12 -32
12 -21 0 -27 8 -41 58 -8 31 -27 94 -40 140 -14 46 -43 159 -64 253 -47 203
-51 211 -92 207 -58 -6 -57 -15 15 -300 36 -144 83 -315 103 -378 43 -135 51
-216 35 -359 -18 -168 -58 -211 -216 -234 -141 -20 -184 15 -224 183 -26 108
-43 396 -45 745 l-1 260 43 240 c24 132 45 241 47 243 2 2 13 -14 24 -37 32
-61 28 -123 -11 -184 -26 -40 -30 -53 -22 -75 6 -19 18 -28 36 -30 60 -7 148
159 258 488 178 532 350 894 546 1157 120 159 399 427 454 435 15 2 29 13 35
27 11 28 184 145 281 191 80 39 203 82 311 109 104 27 274 45 283 31 13 -20
109 -49 197 -59 48 -6 156 -15 238 -21 147 -11 432 -48 550 -73 54 -12 62 -16
80 -51 27 -51 49 -62 81 -42 13 9 24 23 24 31 0 19 8 19 108 -5 105 -25 428
-84 552 -101 52 -7 165 -13 250 -13 178 0 254 16 289 61 12 14 23 24 26 21 3
-2 23 -81 45 -174 22 -93 55 -227 75 -299 41 -149 170 -662 180 -716 5 -27 1
-47 -15 -79 -18 -34 -20 -48 -11 -66 10 -23 15 -26 51 -28 11 -1 29 -55 66
-201 55 -218 110 -395 154 -492 31 -67 64 -89 96 -62 22 18 15 53 -39 189 -36
91 -43 117 -33 125 29 23 36 57 36 179 0 104 3 126 15 126 8 0 19 9 25 21 7
11 14 18 17 16 2 -3 9 -67 14 -142 9 -142 16 -167 50 -185 29 -16 60 7 81 61
25 64 102 462 135 694 24 177 28 229 27 450 0 237 -2 255 -26 345 -14 53 -50
150 -80 215 -70 153 -122 289 -149 390 -26 96 -56 154 -85 161 -12 3 -36 4
-55 2 -27 -2 -37 -10 -49 -34 -10 -21 -41 -46 -99 -80 -46 -27 -123 -76 -170
-109 -47 -33 -110 -75 -140 -94 l-55 -33 -19 26 c-24 33 -61 34 -82 2 -13 -19
-14 -29 -6 -45 16 -29 14 -39 -9 -46 -12 -4 -23 -18 -27 -36 -8 -42 -22 -49
-120 -60 -97 -10 -216 -5 -398 17 -173 22 -161 16 -168 82 -14 149 -131 507
-256 781 -33 74 -60 136 -58 137 1 1 85 -63 187 -143 102 -79 204 -156 227
-171 41 -26 46 -35 109 -192 36 -91 68 -171 71 -177 8 -20 -52 -16 -107 8 -62
27 -93 15 -88 -34 3 -27 11 -36 53 -57 40 -20 67 -25 135 -27 47 -1 96 -5 110
-8 41 -10 63 23 69 107 l6 72 56 -62 c61 -68 98 -81 119 -42 17 32 3 59 -74
140 -155 164 -135 124 -171 350 -17 110 -29 202 -27 205 8 8 32 -16 32 -31 0
-22 111 -357 126 -381 19 -30 59 -30 79 0 14 22 12 31 -23 128 -43 116 -67
197 -60 204 2 2 38 -7 79 -20 41 -13 103 -27 136 -30 l60 -7 133 -129 c73 -72
140 -129 150 -129 11 0 30 -5 44 -11 55 -25 103 14 90 74 -7 35 -155 188 -252
262 -48 36 -52 42 -52 81 0 169 -210 392 -531 565 -52 27 -101 54 -109 58 -34
19 -147 51 -181 51 -36 0 -64 -20 -70 -51 -3 -14 -19 -10 -99 26 -52 23 -147
73 -210 110 -63 37 -203 112 -310 167 -107 54 -187 98 -178 98 32 0 264 -59
409 -104 253 -79 638 -256 865 -399 188 -118 407 -281 548 -408 152 -136 211
-201 244 -266 24 -46 50 -60 82 -43 117 63 -271 447 -785 778 -279 179 -657
354 -978 452 -106 33 -349 86 -540 120 -159 28 -504 72 -552 71 -108 -2 -345
-25 -405 -38 -105 -23 -120 -22 -255 21 -128 40 -229 54 -257 36z m841 -152
c13 -37 23 -128 13 -128 -5 0 -72 30 -148 68 l-139 67 60 6 c33 3 93 6 133 7
67 2 73 0 81 -20z m203 -101 c32 -43 58 -83 58 -88 0 -5 -29 -9 -64 -9 l-63 0
-12 78 c-7 42 -15 91 -18 107 l-5 30 22 -20 c13 -11 49 -55 82 -98z m153 73
c133 -53 364 -181 365 -202 0 -15 -66 6 -94 29 -47 39 -102 63 -146 63 -35 0
-43 -4 -58 -30 -9 -16 -22 -30 -29 -30 -7 0 -29 28 -49 63 -20 34 -50 79 -66
100 -37 46 -25 48 77 7z m-723 -61 c11 -32 34 -43 72 -33 17 4 40 -2 76 -22
87 -47 85 -54 -16 -54 l-89 0 -55 71 c-68 86 -70 91 -30 77 21 -7 35 -21 42
-39z m400 -281 c48 -52 60 -73 83 -144 26 -86 38 -98 88 -91 11 1 26 -9 35
-23 16 -23 16 -24 -3 -15 -11 4 -34 10 -52 13 -41 5 -62 -26 -42 -67 6 -14 11
-37 10 -51 -1 -17 14 -44 48 -85 34 -42 59 -88 84 -155 20 -52 40 -107 46
-122 19 -51 4 -29 -59 85 -162 289 -300 498 -423 638 -37 42 -67 79 -67 83 0
4 44 4 98 1 l97 -6 57 -61z m602 33 c31 -26 176 -194 172 -199 -3 -2 -46 21
-98 51 -51 30 -113 66 -138 79 -34 19 -46 32 -51 56 -3 17 -4 34 -1 36 10 10
98 -7 116 -23z m-939 -83 c88 -154 179 -332 220 -428 l35 -85 -62 70 c-35 39
-99 108 -144 155 -44 47 -98 112 -119 145 -20 33 -51 77 -68 98 l-30 38 22 20
c11 11 21 31 21 44 0 24 22 44 51 45 9 0 38 -40 74 -102z m1167 58 c41 -9 71
-25 111 -59 l54 -47 7 -80 c3 -44 9 -93 12 -110 4 -16 3 -30 -2 -30 -5 1 -37
42 -71 93 -34 51 -89 125 -122 164 -34 40 -61 75 -61 78 0 7 8 6 72 -9z m-565
-47 c39 -22 81 -47 93 -57 24 -20 171 -335 159 -340 -5 -2 -32 9 -60 25 -45
24 -61 42 -122 138 -38 61 -95 142 -126 180 -31 39 -60 78 -64 89 -6 16 -4 17
20 11 16 -3 60 -24 100 -46z m893 -51 c29 -32 14 -37 -18 -5 -14 15 -21 27
-15 27 7 0 21 -10 33 -22z m299 -120 c64 -39 155 -98 203 -130 l86 -58 7 -55
c4 -31 5 -58 2 -61 -6 -6 -149 95 -274 194 -83 65 -177 182 -146 182 3 0 59
-32 122 -72z m-303 -30 c129 -136 415 -518 388 -518 -4 0 -43 31 -88 69 -44
37 -133 110 -196 161 -63 51 -118 100 -122 110 -3 9 -11 52 -17 96 -7 43 -14
89 -17 102 -7 32 7 27 52 -20z m-466 -66 c69 -47 175 -122 235 -167 130 -96
137 -107 190 -325 59 -241 157 -517 270 -767 20 -42 34 -80 33 -83 -2 -6 -153
25 -364 75 -26 6 -18 -14 -195 505 -98 286 -142 430 -143 463 -1 37 -6 52 -23
65 -18 14 -153 300 -153 325 0 11 2 9 150 -91z m1319 -25 c129 -80 321 -280
321 -335 0 -19 -36 9 -164 126 -59 55 -141 124 -181 154 -67 48 -95 81 -95
110 0 15 24 4 119 -55z m-3210 -183 c61 -125 110 -228 108 -230 -2 -2 -35 21
-73 51 l-69 55 -47 158 c-48 158 -55 192 -40 192 4 0 59 -102 121 -226z m1254
-17 c110 -184 212 -381 278 -535 42 -100 56 -123 76 -128 25 -7 63 18 63 41 0
7 -13 42 -30 78 -45 100 -36 103 19 7 75 -133 219 -369 249 -408 l27 -35 -35
6 c-79 15 -296 37 -454 47 -196 12 -212 15 -219 41 -8 32 -53 42 -160 35 -54
-4 -104 -9 -111 -12 -15 -6 -45 96 -101 338 -32 145 -42 208 -30 208 2 0 26
-23 52 -52 97 -103 164 -133 197 -86 15 21 16 20 42 -38 14 -32 51 -133 82
-224 30 -91 60 -168 66 -173 18 -12 58 -3 69 15 8 12 3 42 -18 115 -29 100
-120 345 -150 403 -28 55 2 23 64 -68 76 -110 106 -142 135 -142 21 0 55 35
69 72 3 10 -14 57 -45 120 -39 79 -193 418 -235 517 -4 9 -2 12 5 7 6 -3 49
-70 95 -149z m-443 86 c18 -10 47 -51 78 -107 80 -145 163 -316 154 -316 -5 0
-21 14 -38 31 -16 17 -54 46 -84 64 -81 50 -110 98 -126 205 -7 49 -16 100
-20 114 -7 30 -2 32 36 9z m766 -85 c24 -40 41 -74 39 -77 -3 -2 -6 -2 -8 0
-2 2 -26 34 -54 70 -38 49 -48 70 -40 78 13 13 12 15 63 -71z m-1010 -61 c6
-31 4 -36 -8 -32 -15 6 -40 139 -29 151 7 7 28 -63 37 -119z m-742 64 c-9 -10
-26 18 -18 30 5 9 9 8 14 -7 4 -10 6 -21 4 -23z m1991 -131 c61 -160 122 -341
115 -345 -4 -2 -17 22 -30 53 -12 31 -60 131 -106 222 -46 91 -84 169 -84 172
0 4 18 -3 40 -15 34 -19 44 -32 65 -87z m1120 30 l50 -37 18 -118 c10 -64 16
-119 14 -121 -2 -3 -36 41 -76 96 -68 96 -71 102 -56 122 22 32 19 43 -22 90
-37 41 -37 42 -8 24 17 -11 53 -36 80 -56z m362 -26 c106 -103 104 -107 -22
-49 -71 32 -71 32 -87 88 -12 47 -13 57 -2 57 8 0 58 -43 111 -96z m-3418 -49
c4 -5 27 -68 50 -140 23 -71 45 -136 47 -142 13 -32 -13 -9 -35 30 -68 122
-161 305 -161 316 0 12 82 -41 99 -64z m-276 59 c10 -10 -42 -104 -58 -104
-26 0 -26 20 0 65 25 42 43 54 58 39z m841 -155 c10 -45 20 -87 23 -95 3 -8 1
-14 -3 -14 -9 0 -74 137 -74 156 0 11 20 34 30 34 4 0 14 -36 24 -81z m158 59
c9 -7 32 -58 51 -113 19 -55 45 -125 57 -155 19 -47 21 -67 17 -135 -6 -81
-22 -145 -37 -145 -4 0 -22 16 -39 35 -22 26 -30 42 -26 58 4 13 -4 65 -15
117 -12 52 -30 152 -39 223 -16 117 -16 127 -1 127 9 0 23 -6 32 -12z m-1108
-111 c-5 -9 -75 -107 -111 -156 -2 -2 -6 -2 -9 1 -3 3 15 47 41 97 41 84 47
91 65 81 12 -6 18 -16 14 -23z m2239 -80 c55 -71 97 -135 97 -150 0 -3 -9 -7
-21 -10 -24 -6 -33 7 -110 157 -28 54 -46 95 -40 92 6 -4 39 -44 74 -89z
m-1949 67 c11 -28 6 -39 -9 -20 -8 11 -15 23 -15 28 0 14 18 9 24 -8z m308
-51 c40 -45 158 -199 158 -207 0 -12 -27 -5 -85 22 l-60 29 -32 96 c-17 54
-28 97 -23 97 4 0 23 -17 42 -37z m-343 -172 c11 -6 33 -11 50 -11 31 0 117
-57 113 -75 -2 -9 -241 -9 -250 0 -2 2 4 43 14 91 l18 88 17 -41 c10 -23 27
-46 38 -52z m686 -82 c11 -17 -1 -21 -15 -4 -8 9 -8 15 -2 15 6 0 14 -5 17
-11z m1460 -50 c25 -71 27 -82 17 -75 -17 10 -62 97 -56 108 10 16 27 3 39
-33z m-1550 -20 c10 -15 4 -18 -27 -12 -15 3 -25 9 -22 14 7 12 41 11 49 -2z
m-813 -121 c-3 -61 5 -131 28 -263 49 -276 75 -575 51 -589 -15 -9 -62 111
-81 207 -11 51 -28 184 -40 297 -30 295 -38 320 -91 320 -45 0 -56 -29 -64
-165 -15 -285 -45 -615 -55 -615 -4 0 -15 87 -24 193 -27 303 -46 398 -85 428
-14 11 -31 17 -38 15 -7 -3 -13 -4 -13 -2 0 10 -31 184 -36 199 -5 14 1 17 37
17 24 0 100 7 169 15 69 8 148 16 175 18 28 2 55 4 60 5 6 1 9 -29 7 -80z
m345 69 c8 -5 -4 -117 -19 -196 -2 -7 -50 37 -108 99 l-105 113 112 -5 c61 -3
115 -8 120 -11z m966 -111 c1 -4 -43 -20 -98 -35 -165 -45 -283 -97 -416 -182
-42 -27 -79 -49 -82 -49 -15 0 -5 68 18 126 14 35 28 90 32 124 6 57 8 61 28
56 12 -3 53 -8 91 -12 75 -6 136 11 148 42 5 13 11 11 41 -15 30 -26 44 -31
84 -31 43 0 52 4 80 35 17 20 31 41 32 48 0 10 36 -79 42 -107z m-844 -39 c-2
-144 -8 -180 -28 -168 -10 7 -14 28 -12 78 2 95 21 224 32 217 5 -3 8 -60 8
-127z m4152 -40 c25 -78 78 -214 117 -302 39 -88 78 -187 87 -220 28 -106 39
-322 26 -480 -14 -163 -58 -473 -87 -618 -15 -75 -27 15 -40 309 -28 656 -43
841 -84 1035 -30 142 -39 170 -71 202 -24 23 -35 28 -57 22 -15 -3 -35 -16
-44 -28 l-17 -22 -9 25 c-15 40 -47 63 -74 55 -13 -4 -26 -13 -30 -19 -5 -8
-11 -7 -20 2 -9 9 -9 15 0 24 11 11 243 156 252 157 3 0 26 -63 51 -142z
m-4370 -83 l79 -82 0 -66 c0 -36 5 -110 11 -166 l11 -100 -79 -83 -78 -83 -13
140 c-7 78 -28 231 -47 342 -19 110 -35 214 -35 230 l1 29 36 -40 c20 -22 71
-77 114 -121z m342 44 c4 -79 3 -89 -16 -105 -20 -18 -20 -18 -14 37 4 30 7
84 7 120 1 92 16 56 23 -52z m1987 -13 c0 -7 -15 -9 -36 -7 -28 3 -34 8 -28
21 4 9 9 31 12 50 l5 35 23 -45 c13 -24 23 -49 24 -54z m1634 -152 c11 -165
46 -609 55 -693 5 -41 6 -78 2 -82 -7 -8 -132 449 -161 588 -10 50 -25 117
-34 150 -8 32 -14 60 -12 61 7 8 132 82 137 83 4 0 9 -48 13 -107z m361 -277
c22 -183 17 -189 -21 -21 -32 144 -42 243 -27 259 10 10 29 -84 48 -238z
m-3997 185 c-42 -39 -59 -40 -49 -4 5 18 18 30 42 38 45 16 48 3 7 -34z m-929
-436 c35 -455 35 -452 7 -630 -30 -186 -33 -261 -11 -293 15 -20 12 -33 -42
-192 -32 -93 -62 -170 -67 -170 -12 0 -2 228 24 565 32 408 50 719 50 861 0
72 3 134 8 138 9 10 8 20 31 -279z m295 45 c24 -63 63 -128 90 -145 l24 -16
-56 -92 c-30 -51 -92 -166 -136 -257 l-81 -165 -3 75 c-2 45 9 159 27 285 16
116 37 273 46 350 24 205 23 204 50 100 13 -49 31 -110 39 -135z m4517 -721
c8 -116 11 -215 8 -221 -3 -5 -16 49 -28 120 -18 104 -21 148 -16 221 4 50 11
91 15 91 4 0 13 -95 21 -211z"/>
<path d="M3959 4973 c-28 -7 -41 -54 -48 -166 -3 -59 -9 -108 -14 -110 -4 -1
-33 31 -65 72 -69 90 -81 99 -119 85 -31 -11 -30 -7 -17 -141 6 -62 4 -73 -9
-73 -8 0 -59 41 -114 91 -156 143 -209 172 -246 131 -23 -26 -21 -59 9 -148
14 -42 24 -78 22 -80 -2 -2 -40 21 -84 50 -94 63 -116 71 -146 55 -33 -17 -38
-28 -38 -86 0 -46 -3 -55 -26 -70 -15 -9 -45 -19 -68 -23 -33 -4 -42 -10 -50
-33 -30 -85 145 -77 213 9 12 15 21 32 21 38 0 6 4 17 9 25 7 11 22 6 77 -29
87 -55 133 -62 168 -27 28 28 32 56 17 120 -6 24 -5 37 1 37 6 0 46 -33 89
-74 95 -90 133 -106 187 -79 24 11 44 32 56 56 l18 38 27 -25 c80 -76 151 -43
176 81 l11 54 47 -99 c51 -108 82 -144 122 -144 57 0 89 63 105 207 14 125 13
161 -6 179 -36 37 -103 1 -90 -48 8 -33 -5 -197 -15 -194 -5 2 -43 73 -86 158
-77 153 -93 172 -134 163z"/>
<path d="M5352 4958 c-15 -15 -16 -60 -1 -75 7 -7 11 -49 11 -107 -1 -91 1
-97 24 -112 32 -21 69 -11 106 28 l28 30 0 -45 c0 -58 17 -96 46 -103 51 -13
86 20 122 112 11 27 24 48 28 47 5 -1 14 -37 21 -80 13 -81 33 -113 73 -113
30 0 74 44 100 99 13 28 27 51 30 51 4 0 10 -28 13 -62 6 -70 31 -111 70 -116
42 -5 64 14 113 98 25 44 49 82 53 85 5 2 11 -36 14 -86 6 -98 21 -129 61
-129 29 0 38 8 71 65 24 42 41 67 83 125 8 11 21 -29 27 -89 8 -72 25 -115 51
-125 19 -7 64 18 64 37 0 37 -42 225 -57 256 -16 32 -23 36 -62 39 -41 3 -46
0 -90 -47 -26 -28 -50 -51 -54 -51 -4 0 -7 11 -7 25 0 41 -26 92 -52 101 -59
20 -97 -4 -156 -101 l-37 -60 -6 55 c-9 82 -26 125 -55 139 -54 24 -86 3 -124
-82 -12 -26 -24 -47 -28 -47 -4 0 -13 24 -20 53 -17 71 -41 101 -84 105 -29 3
-40 -2 -64 -31 -16 -19 -34 -42 -40 -53 -11 -17 -13 -14 -24 28 -21 83 -77
113 -125 68 l-22 -20 -12 40 c-16 53 -60 77 -89 48z"/>
<path d="M5665 4354 c-142 -19 -345 -109 -440 -195 -48 -45 -55 -56 -55 -89 0
-50 29 -85 82 -98 74 -19 364 -37 583 -37 237 1 316 12 498 72 122 40 157 70
157 136 0 64 -82 135 -142 123 -20 -4 -44 2 -76 18 -109 55 -183 68 -387 71
-104 2 -203 1 -220 -1z m402 -110 c42 -8 100 -24 128 -35 54 -20 145 -75 145
-88 0 -16 -213 -73 -322 -86 -59 -7 -73 0 -43 25 23 19 19 92 -6 123 -20 26
-73 47 -120 47 -13 0 -44 3 -69 6 -41 5 -51 1 -110 -38 -61 -40 -65 -46 -68
-84 -2 -27 2 -45 13 -54 20 -17 19 -33 -3 -26 -9 3 -86 10 -170 15 -84 5 -156
12 -159 15 -11 10 20 37 91 78 107 63 197 98 278 107 127 15 332 12 415 -5z"/>
<path d="M3444 4340 c-139 -19 -190 -48 -200 -110 -7 -43 19 -81 75 -110 47
-23 84 -10 89 32 3 22 -3 32 -29 47 -23 14 -28 22 -18 25 20 7 201 26 241 25
31 0 32 -1 11 -11 -13 -6 -23 -15 -23 -19 0 -5 -17 -13 -39 -19 -56 -15 -91
-51 -91 -95 0 -32 -2 -35 -22 -30 -13 3 -77 16 -143 30 -69 15 -132 34 -147
45 -50 37 -98 19 -98 -35 0 -30 5 -37 40 -55 50 -25 199 -62 400 -97 136 -25
179 -28 350 -27 206 1 353 19 420 52 31 15 35 21 36 57 0 22 4 48 9 59 31 68
-103 152 -345 216 -70 19 -117 23 -270 26 -102 1 -213 -1 -246 -6z m485 -117
c41 -8 104 -26 140 -39 69 -26 161 -80 161 -95 0 -14 -101 -39 -200 -49 -112
-11 -240 -13 -240 -3 0 3 7 14 16 24 36 40 10 143 -44 174 -26 15 -25 16 33
10 33 -4 93 -13 134 -22z"/>
<path d="M1864 4119 c-34 -16 -47 -31 -67 -77 -49 -110 -71 -287 -47 -374 12
-42 47 -73 97 -87 19 -5 43 -21 54 -35 13 -17 30 -26 49 -26 45 0 55 22 51
114 -4 82 -4 182 0 246 1 19 -8 66 -20 104 -11 37 -21 81 -21 96 0 30 -23 60
-43 60 -7 -1 -31 -10 -53 -21z m38 -231 c-2 -24 -3 -80 -2 -126 0 -65 -3 -84
-15 -88 -8 -4 -23 0 -31 7 -14 11 -16 29 -11 109 3 52 11 112 17 134 11 36 13
37 28 22 11 -10 15 -30 14 -58z"/>
<path d="M3942 3128 c-31 -31 10 -193 65 -250 62 -67 131 -80 283 -53 99 17
164 19 190 5 11 -6 22 -26 25 -48 16 -105 46 -149 116 -171 22 -7 129 -12 275
-14 l239 -2 58 29 c44 21 66 40 88 74 16 25 29 56 29 67 0 21 5 22 89 21 81
-1 92 1 115 23 44 41 30 95 -46 177 -44 48 -66 54 -91 26 -24 -27 -21 -47 14
-87 18 -20 29 -38 25 -42 -3 -3 -37 0 -74 7 -99 18 -132 -6 -132 -96 0 -46
-36 -79 -103 -94 -75 -16 -456 -3 -478 17 -10 8 -20 38 -24 69 -7 60 -43 112
-96 140 -37 19 -122 18 -246 -3 -141 -23 -169 -16 -205 56 -16 30 -28 69 -28
86 0 59 -54 97 -88 63z"/>
<path d="M3456 2264 c-27 -26 -18 -53 37 -110 73 -77 137 -124 248 -183 162
-86 340 -143 628 -202 331 -67 536 -75 812 -34 181 27 223 39 316 90 34 18 80
39 102 46 51 15 81 43 81 74 0 79 -25 87 -330 97 -388 12 -747 36 -820 53 -36
9 -154 34 -262 55 -108 21 -236 52 -285 69 -147 50 -205 53 -216 9 -8 -29 9
-56 39 -64 32 -8 52 -51 46 -99 -2 -20 -7 -35 -11 -33 -101 47 -184 102 -241
159 -91 91 -115 103 -144 73z m532 -150 c16 -5 21 -12 17 -24 -3 -10 3 -36 15
-57 24 -45 26 -73 4 -73 -27 0 -54 20 -54 40 0 10 -4 22 -10 25 -12 7 -14 95
-2 95 4 0 17 -3 30 -6z m240 -59 c2 -2 -4 -15 -13 -28 -18 -27 -12 -51 19 -77
9 -7 16 -21 16 -32 0 -17 -5 -19 -26 -14 -40 10 -79 56 -92 108 -7 26 -12 50
-12 53 0 6 101 -4 108 -10z m137 -24 c25 -5 30 -10 27 -32 -4 -30 20 -59 49
-59 12 0 19 -7 19 -19 0 -10 9 -30 20 -44 31 -39 32 -39 -62 -16 -33 8 -38 14
-38 38 0 15 -10 40 -22 54 -13 15 -33 40 -46 57 l-24 30 24 -1 c13 -1 37 -4
53 -8z m235 -51 l25 -7 -28 -12 c-39 -15 -47 -14 -47 9 0 21 9 23 50 10z m370
-27 c9 -9 -34 -26 -69 -27 -20 -1 -47 -5 -61 -9 -20 -5 -29 -1 -47 22 l-22 28
97 -5 c53 -2 99 -7 102 -9z m463 -16 c26 1 47 0 47 -2 0 -2 -25 -17 -55 -34
-58 -33 -137 -56 -218 -64 -41 -4 -52 -1 -85 25 -20 17 -56 41 -79 55 -24 14
-43 27 -43 30 0 3 87 2 193 -3 105 -5 213 -8 240 -7z m-693 -88 l33 -41 -49 6
c-27 3 -75 8 -106 12 -53 6 -81 23 -40 25 9 0 35 9 57 19 58 27 68 25 105 -21z
m165 -29 c4 -6 -6 -10 -22 -10 -22 0 -25 2 -13 10 19 12 27 12 35 0z m100 0
c3 -5 -3 -10 -15 -10 -12 0 -18 5 -15 10 3 6 10 10 15 10 5 0 12 -4 15 -10z"/>
</g>
</svg>
